<svg width="1011" height="840" viewBox="0 0 1011 840" fill="none" xmlns="http://www.w3.org/2000/svg">
<g opacity="0.504511">
<path fill-rule="evenodd" clip-rule="evenodd" d="M936.077 571.632C948.632 651.694 644.15 703.916 382.075 667.472C120.001 631.027 -0.22691 488.709 124.831 412.876C249.888 337.042 923.522 491.57 936.077 571.632Z" fill="#F2F2F2"/>
</g>
<path fill-rule="evenodd" clip-rule="evenodd" d="M559.418 238.011C564.155 234.923 571.505 236.891 576.275 238.713C578.112 239.416 582.808 241.664 586.292 244.194C585.831 242.44 585.421 240.671 585.062 238.888C583.589 231.556 582.574 224.085 582.086 216.657C581.959 214.72 582.124 212.555 582.292 210.362L582.292 210.362C582.349 209.619 582.406 208.873 582.452 208.131C582.261 207.956 582.132 207.714 582.078 207.386C582.058 207.522 582.047 207.631 582.038 207.714C582.024 207.848 582.017 207.915 581.992 207.922C581.967 207.93 581.923 207.872 581.834 207.756C581.8 207.711 581.759 207.658 581.71 207.596C578.186 203.101 575.226 198.035 574.819 192.467C574.475 187.744 579.025 178.809 585.474 184.994C588.359 187.757 587.61 207.159 583.276 208.348C584.434 214.777 585.89 221.195 587.713 227.532C587.986 227.49 588.265 227.487 588.541 227.519C588.514 225.943 588.512 224.224 588.587 223.633C589.237 218.541 594.224 208.203 602.164 210.21C608.265 211.753 604.525 218.103 602.449 220.882C599.107 225.356 595.326 227.294 590.538 229.621C590.442 230.583 589.715 231.142 588.857 231.323C592.063 241.557 596.275 251.537 601.787 260.965L601.934 260.366L601.934 260.366C602.634 257.504 603.45 254.168 603.966 253.467C606.668 249.799 612.649 245.32 618.164 247.49C629.747 252.054 617.174 265.171 607.313 266.598C606.903 267.081 606.469 267.47 606.008 267.692C607.924 270.538 609.972 273.325 612.163 276.039C615.449 280.123 618.981 284.193 622.683 288.24C622.797 285.074 624.263 278.02 624.678 277.262C627.207 272.659 634.495 267.922 640.408 271.192C647.058 274.879 641.028 281.846 637.235 284.999C635.681 286.292 627.991 291.029 625.279 291.051C634.224 300.593 644.098 309.972 654.136 319.012C653.305 314.965 652.218 303.82 652.34 302.583C652.963 296.199 657.882 285.987 667.573 288.475C676.974 290.885 672.815 301.494 669.597 306.551C667.648 309.611 664.952 312.721 661.702 314.856C661.116 315.24 660.35 315.554 659.587 315.868C658.666 316.246 657.746 316.623 657.146 317.122C656.61 317.567 656.446 318.078 656.283 318.585C656.111 319.12 655.94 319.65 655.336 320.093C660.761 324.957 666.224 329.72 671.609 334.351C674.15 336.536 676.737 338.679 679.35 340.796C680.779 340.29 682.817 340.955 682.711 342.682C682.695 342.933 682.627 343.149 682.536 343.347C684.515 344.919 686.508 346.479 688.516 348.022C688.47 347.572 688.483 346.938 688.576 346.063C687.13 347.817 687.19 345.262 687.236 343.314L687.237 343.314C687.253 342.625 687.267 342.013 687.213 341.693C687 340.441 686.726 339.202 686.451 337.964C685.865 335.32 685.28 332.685 685.31 329.956C685.373 324.165 689.672 314.456 698.72 317.905C707.039 321.07 704.012 329.654 700.874 335.036C698.887 338.441 696.169 341.482 693.327 344.393C692.821 344.913 692.258 345.616 691.702 346.313C690.875 347.347 690.061 348.366 689.459 348.746C697.183 354.653 705.089 360.387 712.996 366.121L712.997 366.122C716.538 368.69 720.08 371.259 723.605 373.843C723.758 373.275 723.885 372.713 723.994 372.187C723.774 372.399 723.474 372.499 723.089 372.479C722.986 372.045 722.838 371.467 722.66 370.774L722.659 370.773C720.482 362.302 713.851 336.503 731.807 341.503C744.962 345.177 735.676 367.642 725.864 375.5C731.819 379.888 737.717 384.331 743.477 388.908C747.644 392.219 751.689 395.644 755.58 399.183C753.567 394.6 751.67 388.668 752.915 383.947C754.728 377.077 763.222 370.59 771.515 374.5C781.854 379.394 773.9 386.079 766.441 392.347C762.633 395.548 758.953 398.64 757.904 401.33C770.273 412.939 780.832 425.835 787.888 440.526C795.561 456.502 802.684 477.968 798.745 495.842C799.472 487.983 796.361 478.115 794.176 471.185L794.176 471.184C793.879 470.241 793.599 469.352 793.347 468.529C790.065 457.781 785.401 447.323 779.255 437.534C769.411 421.857 756.407 408.549 741.395 396.466C737.977 397.482 734.264 399.365 731.189 400.924C729.303 401.88 727.657 402.714 726.466 403.153C720.721 405.268 709.693 408.3 706.033 401.637C702.435 395.086 711.619 391.423 717.311 389.954C722.812 388.537 727.77 388.708 732.901 389.87C724.955 383.857 716.815 378.034 708.677 372.213L708.676 372.212C707.179 371.142 705.682 370.071 704.187 368.999C702.118 370.447 699.833 372.54 697.407 374.762C689.707 381.814 680.585 390.169 672.438 383.343C660.143 373.041 683.657 362.571 693.676 363.388C694.905 363.488 696.095 363.709 697.256 364.011C687.039 356.608 676.981 349.053 667.468 340.967C665.761 341.233 663.043 343.377 659.779 345.952C652.442 351.741 642.342 359.71 634.734 353.435C629.242 348.906 631.122 341.852 636.431 337.818C641.76 333.767 649.487 333.774 656.054 335.138C658.893 335.725 661.512 336.845 663.954 338.211C664.058 338.215 664.157 338.22 664.257 338.225C654.897 330.183 645.479 321.962 636.408 313.46C636.25 313.503 636.087 313.548 635.925 313.593C635.376 314.167 634.458 314.376 633.617 314.25C633.153 314.385 632.68 314.525 632.196 314.667C625.012 316.784 615.777 319.505 608.616 318.331C603.345 317.468 598.563 313.81 603.024 309.307C606.651 305.645 616.492 306.171 621.291 307.039C623.633 307.463 626.182 308.69 628.74 309.922C629.815 310.44 630.891 310.958 631.954 311.418C632.23 310.943 632.712 310.637 633.261 310.491C624.304 301.947 615.757 293.108 608.005 283.884C605.658 284.194 603.056 285.074 600.372 285.982C593.913 288.165 586.982 290.509 582.007 285.462C574.663 278.009 588.475 273.659 595.041 274.367C597.258 274.606 599.444 275.142 601.554 275.851C595.913 268.257 591.605 260.14 588.579 251.615C588.549 251.628 588.522 251.641 588.495 251.654C588.453 251.674 588.41 251.695 588.357 251.714C588.403 251.693 588.443 251.672 588.483 251.65L588.483 251.649C588.513 251.633 588.542 251.617 588.574 251.601C588.272 250.748 587.982 249.892 587.706 249.032C587.193 248.788 586.714 248.609 586.484 248.535C589.467 250.291 576.882 251.15 574.525 251.311C569.314 251.666 562.334 251.798 558.511 248.155C555.301 245.094 555.488 240.572 559.418 238.011ZM799.304 495.867C799.083 498.457 798.535 500.829 797.511 502.785C798.279 500.558 798.868 498.244 799.304 495.867Z" fill="#F2F2F2"/>
<path opacity="0.2" fill-rule="evenodd" clip-rule="evenodd" d="M322.833 72.5958C319.375 70.3648 314.008 71.7899 310.525 73.1092C309.183 73.618 305.753 75.2447 303.209 77.075C303.546 75.807 303.846 74.5279 304.109 73.2383C305.188 67.936 305.932 62.5333 306.292 57.1621C306.385 55.7614 306.265 54.1965 306.144 52.611L306.144 52.6104L306.144 52.6096C306.103 52.0726 306.061 51.5333 306.028 50.9972C306.167 50.8704 306.261 50.6955 306.301 50.4584C306.316 50.5567 306.324 50.6355 306.33 50.6957C306.34 50.792 306.346 50.8409 306.364 50.8461C306.382 50.8515 306.414 50.8101 306.479 50.7258C306.504 50.6935 306.534 50.6549 306.57 50.6103C309.145 47.3585 311.309 43.6948 311.608 39.6681C311.861 36.2531 308.543 29.7932 303.831 34.2681C301.724 36.2667 302.262 50.2958 305.426 51.1542C304.578 55.8033 303.512 60.4447 302.178 65.0273C301.979 64.9976 301.775 64.995 301.574 65.0183C301.594 63.8792 301.597 62.6361 301.542 62.2087C301.07 58.5268 297.433 51.0529 291.635 52.5068C287.179 53.6242 289.907 58.2145 291.422 60.2236C293.86 63.4581 296.62 64.8579 300.115 66.539C300.184 67.2343 300.715 67.6383 301.341 67.7694C298.996 75.1702 295.916 82.3885 291.888 89.2073L291.781 88.7737L291.781 88.7734C291.271 86.7045 290.677 84.2927 290.3 83.7862C288.329 81.1351 283.964 77.8979 279.936 79.4688C271.477 82.7725 280.651 92.2534 287.851 93.282C288.15 93.6313 288.466 93.9122 288.803 94.0732C287.403 96.1316 285.906 98.1472 284.305 100.111C281.904 103.065 279.324 106.009 276.619 108.936C276.537 106.647 275.47 101.547 275.167 100.999C273.323 97.6711 268.003 94.2486 263.685 96.615C258.828 99.283 263.227 104.319 265.995 106.598C267.13 107.532 272.742 110.955 274.723 110.97C268.187 117.872 260.974 124.657 253.64 131.197C254.249 128.271 255.047 120.211 254.959 119.317C254.507 114.701 250.92 107.318 243.843 109.121C236.977 110.866 240.01 118.536 242.357 122.192C243.779 124.404 245.746 126.652 248.118 128.194C248.546 128.472 249.104 128.699 249.662 128.926L249.662 128.926C250.334 129.199 251.005 129.471 251.444 129.832C251.835 130.154 251.954 130.523 252.073 130.889C252.198 131.276 252.323 131.66 252.764 131.98C248.801 135.499 244.81 138.944 240.876 142.294C239.02 143.875 237.13 145.426 235.222 146.957C234.178 146.592 232.69 147.073 232.767 148.322C232.778 148.503 232.827 148.66 232.894 148.803C231.448 149.94 229.993 151.069 228.526 152.185C228.559 151.86 228.55 151.402 228.483 150.769C229.538 152.037 229.495 150.189 229.462 148.78C229.45 148.283 229.44 147.84 229.48 147.609C229.636 146.703 229.837 145.807 230.038 144.912L230.038 144.912C230.467 143 230.895 141.094 230.875 139.121C230.831 134.933 227.696 127.914 221.089 130.411C215.013 132.702 217.219 138.909 219.508 142.799C220.957 145.261 222.941 147.459 225.014 149.563C225.384 149.938 225.794 150.447 226.2 150.951L226.201 150.951C226.804 151.698 227.398 152.435 227.837 152.709C222.195 156.983 216.42 161.131 210.644 165.28C208.057 167.139 205.47 168.997 202.895 170.867C202.783 170.457 202.691 170.05 202.611 169.67C202.772 169.824 202.991 169.895 203.272 169.881C203.347 169.567 203.456 169.149 203.586 168.648L203.586 168.647C205.18 162.522 210.033 143.864 196.92 147.485C187.313 150.146 194.084 166.387 201.244 172.066C196.895 175.241 192.587 178.456 188.379 181.767C185.335 184.163 182.38 186.64 179.537 189.201C181.009 185.886 182.397 181.596 181.49 178.183C180.169 173.216 173.97 168.528 167.913 171.357C160.363 174.9 166.167 179.731 171.61 184.261C174.389 186.574 177.075 188.809 177.839 190.754C168.804 199.152 161.088 208.481 155.93 219.106C150.321 230.66 145.11 246.185 147.979 259.108C147.451 253.426 149.727 246.289 151.325 241.277C151.543 240.595 151.748 239.952 151.932 239.357C154.333 231.584 157.743 224.02 162.235 216.94C169.429 205.601 178.929 195.973 189.896 187.231C192.391 187.965 195.101 189.325 197.346 190.452L197.346 190.452C198.722 191.143 199.924 191.745 200.793 192.062C204.986 193.59 213.038 195.778 215.712 190.96C218.342 186.222 211.638 183.575 207.483 182.515C203.468 181.493 199.847 181.618 196.1 182.459C201.904 178.109 207.85 173.896 213.795 169.684L213.796 169.683C214.889 168.909 215.982 168.134 217.075 167.359C218.585 168.405 220.252 169.917 222.022 171.523C227.641 176.621 234.298 182.659 240.25 177.721C249.231 170.268 232.067 162.704 224.752 163.298C223.854 163.371 222.985 163.531 222.138 163.749C229.6 158.393 236.948 152.927 243.896 147.077C245.143 147.269 247.126 148.818 249.509 150.68C254.863 154.863 262.234 160.622 267.792 156.083C271.804 152.806 270.434 147.705 266.56 144.79C262.67 141.863 257.028 141.87 252.233 142.859C250.16 143.284 248.247 144.095 246.464 145.083C246.388 145.086 246.315 145.09 246.242 145.093C253.08 139.276 259.96 133.328 266.587 127.177C266.702 127.208 266.821 127.24 266.94 127.273C267.34 127.688 268.01 127.839 268.624 127.747C268.797 127.797 268.972 127.848 269.149 127.9C269.318 127.949 269.489 127.998 269.661 128.049C274.906 129.577 281.648 131.542 286.877 130.691C290.726 130.065 294.219 127.418 290.963 124.164C288.317 121.517 281.131 121.901 277.627 122.529C275.917 122.836 274.055 123.725 272.187 124.617C271.402 124.991 270.616 125.367 269.839 125.699C269.638 125.356 269.286 125.135 268.886 125.029C275.43 118.848 281.674 112.454 287.338 105.782C289.051 106.006 290.951 106.641 292.91 107.296C297.625 108.873 302.685 110.566 306.319 106.914C311.685 101.523 301.602 98.3823 296.808 98.8962C295.189 99.0695 293.592 99.4581 292.051 99.971C296.173 94.4783 299.322 88.6076 301.536 82.4425C301.591 82.466 301.635 82.491 301.697 82.5141C301.664 82.4989 301.635 82.4829 301.606 82.4671C301.591 82.4591 301.576 82.4511 301.561 82.4432C301.554 82.4396 301.547 82.4359 301.539 82.4323C301.76 81.8155 301.972 81.1959 302.174 80.5742C302.549 80.3978 302.899 80.2679 303.066 80.2144C300.887 81.4849 310.076 82.1022 311.797 82.2178C315.601 82.4729 320.698 82.5666 323.491 79.9305C325.836 77.7163 325.701 74.4465 322.833 72.5958ZM147.409 258.598C147.577 260.324 148.077 261.899 149.06 263.19C148.338 261.715 147.797 260.178 147.409 258.598Z" fill="#C1DEE2"/>
<g opacity="0.7">
<path fill-rule="evenodd" clip-rule="evenodd" d="M780.822 435.77C794.474 435.062 811.359 443.031 812.815 457.871C813.873 468.653 813.546 479.405 815.183 490.172C816.492 498.776 819.261 507.036 823.038 514.874C826.67 522.411 834.203 528.827 836.162 536.879C837.411 542.01 836.712 549.227 834.99 554.245C832.896 560.347 834.009 559.865 838.182 564.985C846.359 575.018 853.723 585.307 858.93 597.29C866.43 614.55 871.348 634.725 868.564 653.618C868.21 656.017 867.79 664.627 864.486 665.229C860.796 665.902 862.522 660.978 862.719 659.387C863.974 649.238 865.09 640.367 863.575 630.059C857.732 590.288 829.201 564.085 810.623 530.331C809.602 528.59 807.446 524.445 805.947 521.711C803.58 517.393 801.201 509.179 797.997 505.977C791.963 499.947 797.511 512.071 798.686 514.385C800.173 517.313 801.808 520.425 803.332 522.99C810.302 534.882 818.082 547.862 825.28 560.121C794.147 567.214 772.221 529.785 763.866 505.178C756.982 484.905 748.746 437.505 780.822 435.77Z" fill="#69A1AC"/>
<path fill-rule="evenodd" clip-rule="evenodd" d="M963.805 398.121C940.983 399.932 926.331 414.992 919.511 436.056C915.835 447.407 915.413 459.068 913.37 470.734C910.298 488.284 903.686 501.585 890.764 514.089C886.762 517.961 883.812 521.937 881.716 526.191C877.554 530.438 873.931 535.244 871.269 541.12C867.869 548.624 866.907 557.628 870.832 565.109C871.888 567.121 874.521 571.158 877.25 572.992C867.033 594.752 861.415 618.584 862.048 642.386C862.431 656.753 863.132 671.127 863.951 685.477C864.171 689.33 865.426 695.693 867.31 689.231C869.035 683.32 866.872 674.041 866.672 667.867C865.698 637.786 864.866 610.435 877.248 582.331C878.547 579.385 879.924 576.463 881.357 573.565C881.442 573.516 881.52 573.457 881.599 573.4C881.653 573.442 881.703 573.487 881.758 573.529C881.849 573.365 881.975 573.171 882.121 572.954C882.532 572.529 882.891 571.993 883.233 571.395C884.331 569.873 885.574 568.084 885.581 567.105C885.581 567.098 885.577 567.086 885.577 567.078C893.242 554.565 902.022 542.742 910.99 531.149C910.923 531.234 920.718 517.897 919.204 525.272C918.474 528.827 911.269 535.595 908.359 539.36C901.922 547.735 894.363 558.348 888.082 568.61C887.237 569.096 886.043 571.48 885.179 573.257C884.702 574.157 884.257 575.064 883.82 575.855C906.077 583.208 923.39 568.396 935.196 551.168C935.21 551.147 935.223 551.126 935.236 551.106C938.829 546.346 942.509 541.619 947.107 537.856C954.777 531.576 962.992 530.468 972.036 527.378C996.7 518.951 1007.19 486.987 1010.52 463.27C1014.27 436.513 995.894 395.483 963.805 398.121Z" fill="#89C5CC"/>
<path fill-rule="evenodd" clip-rule="evenodd" d="M918.723 323.19C895.299 347.569 883.982 381.383 875.022 413.172C865.014 448.676 858.403 484.728 858.149 521.642C857.983 545.895 857.323 570.299 858.739 594.523C859.241 603.126 860.099 611.745 861.462 620.255C861.575 620.955 864.626 639.958 867.545 635.53C869.205 633.012 864.417 615.817 864.056 612.953C862.021 596.822 861.548 580.573 861.647 564.326C861.81 537.575 861.021 510.962 863.733 484.309C864.137 480.33 864.457 476.151 865.402 472.258C866.406 468.119 865.127 469.926 868.396 468.287C871.573 466.694 875.498 466.922 878.794 464.924C891.866 456.997 898.553 436.635 903.758 423.275C909.711 407.998 913.329 391.706 916.219 375.628C918.341 363.816 919.858 352.075 920.716 340.11C920.987 336.339 921.003 332.396 921.744 328.688C921.944 327.688 922.945 325.919 922.909 325.033C922.832 323.158 921.701 322.056 921.608 320.481C920.627 321.363 919.665 322.267 918.723 323.19Z" fill="#89C5CC"/>
<path fill-rule="evenodd" clip-rule="evenodd" d="M791 648C791 688.317 823.683 721 864 721C904.317 721 937 688.317 937 648" fill="#89C5CC"/>
<path fill-rule="evenodd" clip-rule="evenodd" d="M914.028 584.085C932.095 582.753 952.271 597.329 960.986 612.497C968.012 624.726 966.828 640.785 962.489 653.778C959.583 662.476 953.241 674.878 942.665 674.999C929.433 675.15 928.795 658.796 928.539 649.236C928.199 636.525 926.593 625.453 916.577 616.789C915.341 615.72 914.043 614.719 912.746 613.718C911.594 612.829 910.443 611.941 909.334 611.005C909.157 610.855 908.978 610.706 908.8 610.556C905.258 607.579 901.539 604.453 901.086 599.546C900.43 592.436 904.443 591.156 910.571 592.477C910.769 592.52 911.306 592.723 912.036 593C915.166 594.186 921.844 596.718 920.581 593.692C920.105 592.552 918.368 591.648 916.175 590.971C910.501 590.354 903.733 589.638 901.787 590.066C880.792 594.672 872.617 623.755 870.446 642.233C870.212 644.227 870.023 646.228 869.857 648.232H866C866.268 643.393 866.621 638.562 867.43 633.776C870.525 615.473 880.2 588.591 901.42 585.62C902.203 585.51 905.083 585.491 908.571 585.696C910.224 584.772 912.076 584.213 914.028 584.085Z" fill="#69A1AC"/>
</g>
<g opacity="0.5">
<path fill-rule="evenodd" clip-rule="evenodd" d="M200.223 302.445C204.425 296.453 212.224 281.235 218.138 279.094C221.948 277.715 220.837 291.98 220.884 294.7C221.067 305.224 220.043 315.681 218.778 326.116C216.498 344.937 209.045 361.697 198.822 377.715C193.562 385.957 187.391 394.3 178.845 399.442C174.912 401.811 170.179 402.207 166.294 404.248C161.769 406.623 164.233 404.703 162.194 409.417C159.363 415.963 158.457 424.408 157.147 431.392C151.132 463.455 136.568 632.945 139.093 665.558C139.317 668.449 135.287 669.14 135.085 665.611C134.016 646.9 143.27 517.322 147.94 474.947C152.609 432.571 157.334 395.134 162.071 380.474C167.819 362.687 178.199 341.298 186.84 324.711C190.854 317.006 195.229 309.565 200.223 302.445Z" fill="#69A1AC"/>
<path fill-rule="evenodd" clip-rule="evenodd" d="M231.414 510.278C242.349 502.25 254.186 517.401 244.29 525.43C238.82 529.868 233.101 528.29 229.882 524.591C227.792 527.139 225.836 529.803 223.956 532.052C218.229 538.909 212.817 545.928 207.644 553.111C196.898 568.035 187.689 583.801 178.06 599.278C168.558 614.554 159.132 629.908 150.519 645.571C143.223 658.841 133.498 674.452 131 689C134.79 658.146 149.172 628.49 166.298 601.291C183.285 574.314 202.779 544.853 229.081 523.564C226.404 519.627 226.33 514.008 231.414 510.278Z" fill="#C1DEE2"/>
<path fill-rule="evenodd" clip-rule="evenodd" d="M23.9132 435.031C30.0324 436.227 40.0312 450.07 45.0753 455.344C51.0699 461.612 56.5084 468.292 61.6349 475.292C72.6711 490.358 82.5411 506.376 90.9339 523.08C104.616 550.311 115.578 578.265 123.533 607.918C128.403 626.069 131.556 644.883 133.424 663.565C133.777 667.089 137.471 694.253 132.148 694.985C127.361 695.644 128.84 674.359 128.609 671.463C125.998 638.798 118.177 607.015 107.299 576.226C104.929 569.519 102.728 561.304 98.9381 555.268C96.2092 550.921 98.9186 552.437 94.1228 550.792C90.0049 549.378 85.3131 549.724 81.0963 547.993C71.9356 544.237 64.6006 536.944 58.1709 529.608C45.6758 515.351 35.774 499.928 30.6126 481.66C27.7495 471.532 25.1184 461.344 23.6583 450.902C23.2806 448.203 19.9718 434.26 23.9132 435.031Z" fill="#69A1AC"/>
<path fill-rule="evenodd" clip-rule="evenodd" d="M48.0614 204.716C71.1113 244.69 90.0528 288.601 102.283 333.076C109.694 360.023 114.876 387.675 120.025 415.126C127.997 457.632 135.538 500.134 137.683 543.395C139.841 586.906 144.108 637.092 129.861 679C136.978 636.452 130.202 591.162 129.002 548.35C128.429 527.912 126.768 507.674 124.588 487.355C122.473 467.645 119.018 448.029 115.801 428.474C114.234 418.95 112.588 409.441 110.912 399.937C110.411 397.101 110.2 388.687 108.401 386.75C106.591 384.8 97.3543 384.005 94.4544 382.574C88.6149 379.693 83.1221 375.6 78.2609 371.275C68.9418 362.984 60.8347 352.151 54.4359 341.472C39.6307 316.764 33.7116 286.61 34.0108 257.994C34.0682 252.438 43.0034 192.61 39.4149 191.786C39.631 191.533 39.8353 191.272 40.028 191C42.7448 195.549 45.4108 200.128 48.0614 204.716Z" fill="#89C5CC"/>
<path fill-rule="evenodd" clip-rule="evenodd" d="M296.846 348.887C297.202 348.374 299.517 344.807 298.351 345.035C300.724 344.57 295.087 348.969 301 346.27C298.192 348.922 299.813 352.366 299.85 355.935C299.911 361.73 298.942 367.476 297.851 373.146C296.126 382.109 293.557 390.823 289.828 399.159C281.701 417.326 267.901 434.814 251.518 446.172C243.43 451.779 235.504 453.689 226.28 456.27C220.453 457.901 219.991 460.915 216.898 466.569C210.46 478.345 204.136 490.078 198.457 502.251C191.677 516.788 185.095 531.34 178.886 546.132C157.969 595.957 140.945 647.578 132.005 701C131.786 669.519 139.069 637.095 148.255 607.088C154.947 585.226 163.658 564.151 172.95 543.29C175.201 538.236 178.613 531.735 179.57 526.155C180.239 522.245 178.192 518.486 177.255 514.367C173.601 498.33 173.863 480.363 177.071 464.24C180.609 446.461 190.839 438.209 208.145 435.691C214.474 434.769 222.519 435.107 228.322 432.408C234.645 429.47 237.253 419.81 240.849 413.61C250.506 396.953 261.98 380.979 275.155 366.945C278.803 363.059 282.726 359.473 286.888 356.15C289.513 354.053 295.058 351.47 296.846 348.887Z" fill="#89C5CC"/>
<path fill-rule="evenodd" clip-rule="evenodd" d="M97.845 672.729C97.3997 669.71 99.7396 667 102.791 667H164.209C167.26 667 169.6 669.71 169.155 672.729L164.408 704.918C162.961 714.73 154.541 722 144.622 722H122.378C112.459 722 104.039 714.73 102.592 704.918L97.845 672.729Z" fill="#C1DEE2"/>
</g>
<path fill-rule="evenodd" clip-rule="evenodd" d="M47.4177 683.456C47.4177 704.743 49.0976 722 71.6456 722C94.1935 722 95.8734 704.743 95.8734 683.456" fill="#F2F2F2"/>
<path fill-rule="evenodd" clip-rule="evenodd" d="M78.3534 670.174C77.5269 671.603 76.79 673.061 76.139 674.54C76.116 671.493 76.2845 668.424 76.7446 665.313C77.531 659.983 78.7322 654.682 79.8609 649.388C80.6721 645.584 80.6208 638.752 83.6994 635.72C84.5436 635.065 84.7468 636.351 84.7468 636.908C84.7575 637.026 84.7445 634.632 83.9251 635.049C79.0544 637.564 77.4763 645.474 75.9169 649.434C73.6418 655.215 71.7061 661.124 70.909 667.138C70.7076 668.657 70.598 670.176 70.5727 671.692C70.4071 671.287 70.2516 670.878 70.0796 670.474C67.2684 663.881 63.4747 657.447 58.7431 651.514C57.5784 650.054 42.9342 635.649 41.7878 637.854C41.9009 638.174 42.1377 638.44 42.4988 638.651C42.52 638.675 42.5206 638.662 42.5083 638.626C43.3683 640.016 45.8137 642.161 46.5754 643.379C48.4923 646.442 49.9821 649.693 51.4961 652.882C54.6948 659.622 57.6621 666.429 60.5386 673.25C61.2084 674.839 61.9065 676.419 62.6187 677.994C55.2769 667.405 45.4826 657.791 32 652.287C36.6049 654.63 39.624 659.037 42.7339 662.412C46.4846 666.483 50.4351 670.444 54.1929 674.51C58.6253 679.307 63.8405 684.358 68.1038 689.666C72.2333 698.336 76.2462 707.015 78.7234 716.128C77.7084 712.98 78.6438 708.628 78.4701 705.324C78.3322 702.693 78.0247 700.084 77.6035 697.48C78.1243 698.655 78.5732 699.83 78.7764 700.924C78.5908 699.09 78.377 697.268 78.1472 695.455C78.7369 693.758 79.316 692.175 79.7072 690.87C81.7118 684.179 84.0988 677.602 87.3495 671.193C90.3574 665.264 93.8077 659.41 97.5673 653.735C99.321 651.089 101.099 648.453 102.866 645.812C104.022 644.083 105.123 641.316 106.733 639.659C96.3261 649.174 84.956 658.757 78.3534 670.174Z" fill="#F2F2F2"/>
<path fill-rule="evenodd" clip-rule="evenodd" d="M980.633 123.827C977.65 113.876 970.646 106.087 963.375 98.951C949.22 85.0582 941.607 76.4683 936.562 56.1456C933.595 44.1934 930.575 31.5276 921.165 22.8561C914.313 16.5413 902.521 11.2358 893.358 15.7577C879.261 24.1717 875.475 41.4386 876.897 56.9001C878.659 76.0635 887.61 87.8796 904.807 94.938C914.497 98.9133 920.938 104.159 926.198 113.299C930.405 120.607 932.858 129.759 938.145 136.384C946.05 146.289 955.941 150.691 968.134 149.046C956.714 128.035 943.371 106.826 927.278 89.1352C925.771 87.3566 916.886 80.5492 918.678 77.5181C920.652 74.1806 929.774 86.7175 929.709 86.6418C934.386 92.0103 938.714 97.7152 942.963 103.475C942.953 103.48 942.94 103.483 942.928 103.489C947.304 109.4 951.644 115.397 955.902 121.469C957.624 124.038 959.3 126.639 960.905 129.306C963.259 133.219 966.996 144.325 970.849 146.731C971.673 147.245 972.436 147.533 973.148 147.651C975.777 151.956 978.335 156.295 980.768 160.685C987.121 172.151 992.574 184.257 995.076 197.202C995.807 200.981 995.29 215.114 997.869 217.842C1002.58 222.831 1001.2 213.223 1000.92 210.323C998.579 186.31 989.958 165.852 977.441 145.664C981.286 140.641 981.842 127.859 980.633 123.827Z" fill="#F2F2F2"/>
<path fill-rule="evenodd" clip-rule="evenodd" d="M819.131 135.43C824.102 129.573 836.052 128.579 843.361 128.971C852.404 129.456 861.694 131.658 870.298 134.32C884.471 138.704 898.244 146.706 910.727 154.451C912.231 155.384 930.764 166.529 929.124 168.485C927.498 170.423 909.305 157.184 905.25 154.902C896.597 150.032 888.662 144.272 879.124 141.055C869.249 137.724 858.805 136.405 848.42 136.496C847.087 136.508 842.74 135.579 842.646 137.551C842.554 139.479 849.748 138.473 851.016 138.485C856.255 138.533 861.527 139.026 866.691 139.934C876.368 141.635 885.465 145.061 893.753 150.317C891.44 155.694 885.897 158.173 880.081 156.828C875.055 155.664 870.156 152.795 865.234 151.966C861.845 151.395 858.451 151.735 855.164 152.69C846.494 155.209 841.494 160.371 831.961 156.78C824.489 153.966 811.991 143.853 819.131 135.43Z" fill="#F2F2F2"/>
<path fill-rule="evenodd" clip-rule="evenodd" d="M797.752 41.0513C786.714 40.2462 774.388 49.0557 769.063 58.2232C764.771 65.6147 765.494 75.3207 768.145 83.1734C769.92 88.4307 773.795 95.9263 780.257 95.9994C788.341 96.0908 788.73 86.2066 788.887 80.4283C789.094 72.7462 790.076 66.054 796.195 60.8177C796.95 60.1715 797.743 59.5664 798.536 58.9614C799.239 58.4243 799.943 57.8873 800.62 57.3217C800.728 57.2313 800.837 57.1408 800.946 57.0501C803.11 55.251 805.382 53.3615 805.659 50.3961C806.06 46.0986 803.608 45.3252 799.864 46.1236C799.743 46.1493 799.415 46.2724 798.969 46.4397C797.057 47.1566 792.977 48.6865 793.749 46.8577C794.039 46.1686 795.101 45.6225 796.44 45.2134C799.907 44.8405 804.042 44.4078 805.231 44.6663C818.058 47.4502 823.052 65.0278 824.378 76.1957C824.529 77.4603 824.649 78.7292 824.753 80H827.105C826.94 77.0154 826.725 74.0357 826.221 71.0845C824.331 60.0223 818.419 43.7749 805.455 41.9794C804.977 41.9125 803.217 41.9012 801.086 42.0249C800.076 41.4665 798.945 41.1289 797.752 41.0513Z" fill="#F2F2F2"/>
<path fill-rule="evenodd" clip-rule="evenodd" d="M316.181 444.584C323.455 448.971 330.602 451.091 333.957 450.226C342.37 448.056 343.144 417.257 336.634 405.115C330.125 392.974 296.66 387.681 294.974 411.738C294.388 420.088 297.892 427.539 303.068 433.619L293.787 476.909H320.747L316.181 444.584Z" fill="#B28B67"/>
<path fill-rule="evenodd" clip-rule="evenodd" d="M339.18 410.567C338.913 408.993 338.26 407.246 337.733 405.757C337.054 403.837 336.027 402.106 334.896 400.475C332.767 397.404 330.214 394.631 327.394 392.33C322.244 388.126 315.688 385.701 309.241 386.488C305.986 386.886 302.826 388.129 300.136 390.197C297.707 392.065 295.369 394.816 292.223 395.013C288.799 395.228 285.661 392.204 282.915 390.337C279.819 388.231 276.526 386.697 272.908 386.101C266.846 385.102 261.152 387.151 256.975 392.128C252.529 397.424 249.298 405.19 252.217 412.207C252.76 413.511 253.458 414.611 254.46 415.522C255.378 416.358 256.782 417.247 257.154 418.583C257.55 420.002 256.368 421.833 255.91 423.114C255.253 424.949 254.714 426.876 254.905 428.87C255.22 432.146 257.277 435.273 259.45 437.426C261.66 439.616 264.38 440.873 267.286 441.452C269.226 441.839 271.209 442.052 273.181 441.907C274.16 441.835 275.024 441.563 275.972 441.346C276.895 441.136 277.41 441.381 278.193 441.887C281.828 444.239 285.736 445.149 289.934 444.799C293.476 444.504 297.559 443.645 300.449 441.216C303.659 438.518 303.595 434.798 302.84 430.824C303.64 431.221 305.853 431.466 304.53 429.885C304.006 429.258 303.016 429.003 302.344 428.635C301.561 428.206 300.766 427.651 300.158 426.952C297.704 424.126 300.183 418.376 303.268 417.428C307.852 416.02 308.878 422.507 312.15 424.185C314.032 425.15 316 423.831 317.409 422.485C319.298 420.681 320.584 418.291 321.695 415.86C322.611 413.857 323.462 411.826 324.395 409.834C324.831 408.903 326.339 406.273 325.581 405.22C328.864 404.565 332.521 405.931 335.349 407.721C336.517 408.461 337.408 409.277 338.032 410.584C338.165 410.864 338.456 411.696 338.821 411.73C339.501 411.794 339.247 410.963 339.18 410.567" fill="#191847"/>
<path fill-rule="evenodd" clip-rule="evenodd" d="M225.537 618.548C216.7 618.548 209.537 625.712 209.537 634.548V741.939C209.537 750.776 216.7 757.939 225.537 757.939H358.667C367.503 757.939 374.667 750.776 374.667 741.939V634.548C374.667 625.712 367.503 618.548 358.667 618.548H225.537ZM244.99 650.024C242.781 650.024 240.99 651.814 240.99 654.024V722.464C240.99 724.673 242.781 726.464 244.99 726.464H339.213C341.422 726.464 343.213 724.673 343.213 722.464V654.023C343.213 651.814 341.422 650.024 339.213 650.024H244.99Z" fill="#C5CFD6"/>
<path fill-rule="evenodd" clip-rule="evenodd" d="M486.055 752.319C463.908 725.254 448.922 705.19 441.099 692.126C427.703 669.757 416.739 649.853 413.279 642.249C405.028 624.118 432.273 615.628 438.439 624.085C447.772 636.885 467.703 677.163 498.233 744.919L486.055 752.319Z" fill="#B28B67"/>
<path fill-rule="evenodd" clip-rule="evenodd" d="M440.671 744.45L399.453 640.622C390.638 621.695 433.21 609.254 439.689 618.062C454.398 638.06 489.358 716.947 493.74 722.905L440.671 744.45Z" fill="#2F3676"/>
<path fill-rule="evenodd" clip-rule="evenodd" d="M330.894 723.628C338.923 711.908 368.127 672.477 384.034 656.162C388.605 651.474 393.065 646.974 397.284 642.781C409.822 630.317 434.792 651.266 422.276 662.619C391.107 690.891 345.63 729.057 341.83 732.46C336.505 737.23 325.848 730.993 330.894 723.628Z" fill="#B28B67"/>
<path fill-rule="evenodd" clip-rule="evenodd" d="M335.938 718.586C335.251 717.637 333.909 717.414 333.011 718.164C331.172 719.7 328.363 722.201 327.374 723.916C325.855 726.55 323.817 732.108 323.817 732.108C326.869 733.872 378.686 763.809 378.686 763.809C378.686 763.809 384.907 757.969 380.625 754.743C376.342 751.516 373.557 749.301 373.557 749.301L354.543 723.086C354.212 722.63 353.57 722.537 353.124 722.881L349.088 725.991C349.088 725.991 343.673 725.518 341.006 723.977C339.315 723 337.235 720.376 335.938 718.586Z" fill="#E4E4E4"/>
<path fill-rule="evenodd" clip-rule="evenodd" d="M479.397 746.909C478.328 746.431 477.054 746.908 476.651 748.008C475.826 750.258 474.643 753.829 474.643 755.81C474.643 758.85 475.656 764.684 475.656 764.684C479.181 764.684 539.014 764.684 539.014 764.684C539.014 764.684 541.483 756.513 536.162 755.862C530.842 755.211 527.322 754.686 527.322 754.686L497.758 741.497C497.244 741.267 496.641 741.508 496.426 742.029L494.485 746.741C494.485 746.741 489.559 749.041 486.48 749.041C484.527 749.041 481.415 747.81 479.397 746.909Z" fill="#E4E4E4"/>
<path fill-rule="evenodd" clip-rule="evenodd" d="M384.622 645.808C384.622 645.808 333.235 637.431 315.782 634.351C282.618 628.499 272.947 610.64 278.665 571.675L339.769 571.675C351.899 575.18 441.131 615.031 441.131 615.031C451.835 620.348 449.841 636.025 447.885 641.19C447.765 641.506 393.755 734.01 393.755 734.01L343.768 702.144L384.716 649.563C384.716 649.563 386.338 646.294 384.622 645.808Z" fill="#5C63AB"/>
<path fill-rule="evenodd" clip-rule="evenodd" d="M221.217 620.693C224.509 614.01 240.956 528 240.956 528L265.554 528.092C265.554 528.092 237.452 619.203 235.719 623.5C233.468 629.083 237.292 637.194 239.885 642.694C240.286 643.545 240.658 644.333 240.973 645.04C237.375 646.651 235.647 644.704 233.825 642.651C231.767 640.332 229.589 637.879 224.463 640.265C222.483 641.187 220.609 642.278 218.778 643.343C212.454 647.021 206.644 650.401 198.74 645.521C197.487 644.747 196.114 641.834 199.432 639.557C207.697 633.886 219.608 623.96 221.217 620.693ZM428.386 587.18L396.564 556.115L385.995 574.415L419.085 593.938C427.382 607.018 432.255 612.669 433.704 610.892C434.926 609.394 434.366 607.752 433.85 606.24C433.448 605.062 433.073 603.962 433.588 603.07C434.764 601.034 441.408 602.2 447.665 603.577C453.923 604.953 452.475 601.877 451.145 600.272C445.231 595.496 437.645 591.132 428.386 587.18Z" fill="#B28B67"/>
<path fill-rule="evenodd" clip-rule="evenodd" d="M315.911 458.172L325.624 456.505C340.926 510.633 419.547 547.529 424.373 567.764C426.143 575.184 420.806 578.936 423.563 581.196L410.937 590.445C408.799 587.949 404.237 592.515 394.708 589.321C385.18 586.127 315.911 522.265 315.911 458.172Z" fill="#DB2721"/>
<path fill-rule="evenodd" clip-rule="evenodd" d="M298.142 446.837C295.939 446.682 294.027 448.344 293.873 450.548L293.379 457.628C275.098 471.705 229.79 513.772 217.983 592.083C216.743 600.309 218.986 604.715 220.778 608.235C222.004 610.644 223.019 612.638 222.563 615.156L239.087 619.721C239.087 617.861 241.17 616.446 243.857 614.621C247.763 611.967 252.947 608.445 254.864 601.425C256.681 594.77 259.342 586.459 262.521 577.213C262.821 589.458 265.141 600.72 270.197 610.047C282.809 633.317 355.692 607.798 363.307 584.058C367.37 571.39 361.604 560.755 353.979 546.689C344.3 528.834 331.624 505.452 332.25 465.368L333.094 453.292C333.248 451.088 331.586 449.177 329.383 449.023L298.142 446.837Z" fill="#FF4133"/>
<path fill-rule="evenodd" clip-rule="evenodd" d="M632.823 373.65C625.538 378.041 618.38 380.162 615.02 379.296C606.594 377.125 605.82 346.302 612.339 334.151C618.858 321.999 652.372 316.703 654.061 340.779C654.647 349.134 651.139 356.592 645.955 362.676L655.25 406H628.25L632.823 373.65Z" fill="#B28B67"/>
<path fill-rule="evenodd" clip-rule="evenodd" d="M614.102 329.439C614.338 327.971 613.87 327.25 619.773 323.114C625.677 318.977 635.208 314.099 644.808 316.222C657.267 318.977 662.215 327.195 667.019 331.19C671.35 334.792 675.695 335.212 678.271 339.681C680.846 344.15 682.216 357.008 679.977 362.119C676.888 369.171 670.796 371.07 666.349 373.101C658.723 376.585 647.944 372.906 647.683 372.296C645.663 367.581 634.79 354.28 628.25 348.692C623.441 344.583 612.992 336.33 614.102 329.439Z" fill="#5C63AB"/>
<mask id="mask0" mask-type="alpha" maskUnits="userSpaceOnUse" x="614" y="315" width="68" height="60">
<path fill-rule="evenodd" clip-rule="evenodd" d="M614.102 329.439C614.338 327.971 613.87 327.25 619.773 323.114C625.677 318.977 635.208 314.099 644.808 316.222C657.267 318.977 662.215 327.195 667.019 331.19C671.35 334.792 675.695 335.212 678.271 339.681C680.846 344.15 682.216 357.008 679.977 362.119C676.888 369.171 670.796 371.07 666.349 373.101C658.723 376.585 647.944 372.906 647.683 372.296C645.663 367.581 634.79 354.28 628.25 348.692C623.441 344.583 612.992 336.33 614.102 329.439Z" fill="white"/>
</mask>
<g mask="url(#mask0)">
<path fill-rule="evenodd" clip-rule="evenodd" d="M651.162 363.501C664.073 347.578 667.111 328.375 667.111 328.375L671 330.835C671 330.835 666.217 351.82 651.162 363.501ZM646.25 372.25C667.144 353.891 672.127 333.26 672.127 333.26L676.625 334.586C676.625 334.586 670.426 357.657 646.25 372.25Z" fill="black" fill-opacity="0.2"/>
</g>
<path fill-rule="evenodd" clip-rule="evenodd" d="M673.213 501L630.941 639.467L610.464 757.223H594.408L616.046 501H673.213Z" fill="#997659"/>
<path fill-rule="evenodd" clip-rule="evenodd" d="M688.336 501C685.465 577.026 688.844 616.241 689.486 623.148C690.129 630.055 698.928 674.842 719.76 759.542L702.651 753.655C669.729 675.973 658.51 635.6 654.734 625.399C650.958 615.199 640.929 573.732 624.648 501H688.336Z" fill="#B28B67"/>
<path fill-rule="evenodd" clip-rule="evenodd" d="M716.761 752.204C717.831 751.725 719.106 752.203 719.509 753.303C720.334 755.556 721.517 759.132 721.517 761.115C721.517 764.159 720.504 770 720.504 770C716.979 770 657.146 770 657.146 770C657.146 770 654.676 761.819 659.997 761.167C665.318 760.515 668.838 759.989 668.838 759.989L698.401 746.784C698.916 746.554 699.519 746.795 699.734 747.317L701.675 752.035C701.675 752.035 706.601 754.338 709.68 754.338C711.632 754.338 714.743 753.106 716.761 752.204Z" fill="#E4E4E4"/>
<path fill-rule="evenodd" clip-rule="evenodd" d="M611.168 752.204C612.238 751.725 613.513 752.203 613.916 753.303C614.74 755.556 615.923 759.132 615.923 761.115C615.923 764.159 614.911 770 614.911 770C611.386 770 551.553 770 551.553 770C551.553 770 549.083 761.819 554.404 761.167C559.725 760.515 563.245 759.989 563.245 759.989L592.808 746.784C593.323 746.554 593.926 746.795 594.14 747.317L596.082 752.035C596.082 752.035 601.007 754.338 604.087 754.338C606.039 754.338 609.15 753.106 611.168 752.204Z" fill="#E4E4E4"/>
<path fill-rule="evenodd" clip-rule="evenodd" d="M678.83 501L660.857 571.547H605.959L614.145 501H678.83Z" fill="#69A1AC"/>
<path fill-rule="evenodd" clip-rule="evenodd" d="M688.94 501C697.811 527.642 692.31 571.547 692.31 571.547H636.289L620.885 501H688.94Z" fill="#89C5CC"/>
<path fill-rule="evenodd" clip-rule="evenodd" d="M518.054 388.841L562.059 395.56L553.798 415.004L518.255 400.331C502.801 401.573 495.347 401.082 495.894 398.857C496.356 396.981 498.006 396.44 499.525 395.942C500.709 395.555 501.814 395.193 502.217 394.245C503.136 392.082 498.201 387.48 493.331 383.313C488.461 379.145 491.792 378.451 493.876 378.547C501.257 380.396 509.316 383.827 518.054 388.841ZM544.359 500.395L576.235 469.352L586.815 487.633L553.672 507.145C545.359 520.214 540.478 525.861 539.027 524.086C537.804 522.59 538.365 520.949 538.882 519.438C539.285 518.261 539.661 517.162 539.145 516.272C537.968 514.238 531.315 515.404 525.048 516.781C518.781 518.158 520.232 515.084 521.564 513.48C527.488 508.708 535.086 504.346 544.359 500.395Z" fill="#B28B67"/>
<path fill-rule="evenodd" clip-rule="evenodd" d="M621.573 391.444C607.283 430.183 583.18 461.727 546.645 496.132L564.436 511.263C607.371 488.093 629.853 474.595 636.81 438.914C638.556 429.959 636.789 402.442 636.542 387.869L621.573 391.444Z" fill="#2026A2"/>
<path fill-rule="evenodd" clip-rule="evenodd" d="M692.538 503.848L606.756 515.904C606.756 515.904 623.432 423.073 619.416 389.916C619.279 388.789 621.081 386.516 622.037 386.646C632.529 388.073 643.336 381.483 643.336 381.483C668.261 411.274 680.942 450.482 692.538 503.848Z" fill="#F2F2F2"/>
<path fill-rule="evenodd" clip-rule="evenodd" d="M628.819 434.317C623.484 493.568 630.701 540.442 660.28 536.285L706.019 529.857C706.434 480.103 677.846 415.217 655.356 383.623C654.497 382.416 652.713 380.165 649.324 380.642L636.033 382.509C636.03 382.528 636.027 382.546 636.023 382.565C632.028 383.159 627.645 383.924 622.897 384.753C598.457 389.017 564.378 394.964 524.117 388.032L522.759 411.327C560.67 428.764 598.311 441.109 628.819 434.317Z" fill="#1F28CF"/>
</svg>
