<?xml version="1.0" encoding="utf-8"?>

<svg version="1.1" xmlns="http://www.w3.org/2000/svg" xmlns:xlink="http://www.w3.org/1999/xlink" x="0px" y="0px"
	 viewBox="0 0 354.2 155.1" enable-background="new 0 0 354.2 155.1" xml:space="preserve">
<rect x="297.9" y="110.3" fill="#AFAFAF" width="46" height="7.6"/>
<path fill="#212121" d="M0,110.3h32v7.6H2.2c-1.2,0-2.2-1-2.2-2.2V110.3z"/>
<path fill="#212121" d="M10.5,112.8H0V92.4c0-2.9,2.4-5.2,5.2-5.2h0c2.9,0,5.2,2.4,5.2,5.2V112.8z"/>
<rect x="87.3" y="82.9" fill="#212121" width="189" height="35.3"/>
<rect x="273.8" y="82.9" fill="#212121" width="62.9" height="22.1"/>
<rect x="189.1" y="53.4" fill="#A06824" width="145.7" height="18.5"/>
<rect x="135.1" y="71.8" fill="#8E5A21" width="204.3" height="7.6"/>
<path fill="#1B7C96" d="M15.7,100h103.9c5.8,0,10.4-4.7,10.4-10.4V25.9l-94.6,8.5c-5.7,0-10.7,5.9-12.1,14.4l-7.6,25.4V100z"/>
<polygon fill="#333333" points="120.7,117.9 21.5,117.9 31.7,88.9 63.4,75.8 81.9,75.8 108.7,95.9 119,111.2 "/>
<rect x="139.9" y="3" fill="#8E5A21" width="194.9" height="12.2"/>
<rect x="189.1" y="19.8" fill="#8E5A21" width="145.7" height="12.2"/>
<rect x="189.1" y="36.6" fill="#8E5A21" width="145.7" height="12.2"/>
<rect x="208" y="0.3" fill="#A06824" width="8.9" height="71.5"/>
<rect x="304.8" y="0.3" fill="#A06824" width="8.9" height="71.5"/>
<rect x="139.9" y="3" fill="#A06824" width="44.2" height="68.8"/>
<path fill="#BDE6EF" d="M70.8,5.1L64,33.5h51.1V9.1c0-2.2-1.8-4-4-4H70.8z"/>
<polygon fill="#9DBFC4" points="54.6,5.1 67.8,5.1 61.2,33.5 46.2,33.5 "/>
<polygon fill="#BDE6EF" points="52.7,5.1 66.8,5.1 60.2,33.5 45.2,33.5 "/>
<polygon fill="#085E72" points="120.7,46.8 23.6,46.8 24.5,43.8 120.7,43.8 "/>
<rect x="97.6" y="52.5" fill="#ADADAD" width="18.1" height="3.1"/>
<ellipse fill="#FFF388" cx="12.5" cy="73.6" rx="2.9" ry="7.3"/>
<path fill="#085E72" d="M67.7,65.7c0,0-33-2.8-54.6-0.6c-0.7,0.1-1.2,0.7-1.1,1.3l0,14.7c0,1.4,1.2,2.5,2.6,2.4l28.5-2.3
	C43.1,81.3,79.1,73.9,67.7,65.7z"/>
<path fill="none" stroke="#085E72" stroke-width="2" stroke-miterlimit="10" d="M56.4,1h58.8c0,0,5.6,0.3,5.6,5.7s0,66.3,0,66.3
	s2.2,6.9-5.6,6.9s-19.1,0-19.1,0"/>
<polygon fill="#085E72" points="15.9,102.5 15.9,75.8 35.5,75.8 "/>
<path fill="#074F5B" d="M66,83.1c17.4,0,41.8,14.2,47.1,29.1c1.2,3.5,4.3,5.7,7.6,5.7h0c0-25.9-24.5-52.5-54.7-52.5
	c-25,0-46,18.1-52.6,39c-2.1,6.6,2.3,13.4,8.6,13.4h2.4c3.2,0,6-2.5,6.7-6C34.3,97.1,48.7,83.1,66,83.1z"/>
<path fill="#074F5B" d="M353.2,69.2h-220v2.9h219.8c0.6,0,1.1-0.5,1.1-1.1v-0.8C354.2,69.6,353.8,69.2,353.2,69.2z"/>
<path fill="#085E72" d="M353.2,86.5h-220v-15h219.8c0.6,0,1.1,0.5,1.1,1.1v12.9C354.2,86.1,353.8,86.5,353.2,86.5z"/>
<g>
	<line fill="none" stroke="#085E72" stroke-width="2" stroke-miterlimit="10" x1="16.6" y1="61.7" x2="37" y2="61.7"/>
	<line fill="none" stroke="#085E72" stroke-width="2" stroke-miterlimit="10" x1="17.7" y1="57.9" x2="38.5" y2="57.9"/>
	<line fill="none" stroke="#085E72" stroke-width="2" stroke-miterlimit="10" x1="18.8" y1="54" x2="39.9" y2="54"/>
	<line fill="none" stroke="#085E72" stroke-width="2" stroke-miterlimit="10" x1="20.3" y1="50.2" x2="41.3" y2="50.2"/>
</g>
<polygon fill="#FFFFFF" points="18.9,63.3 23.2,48.9 17.1,47.5 13.7,63.8 "/>
<polygon fill="#085E72" points="54.3,0 56.4,0 56.4,2 53.5,2 "/>
<g>
	<circle fill="#0A0A0A" cx="276.3" cy="124.5" r="30.6"/>
	<circle fill="#ADADAD" cx="276.3" cy="124.5" r="15.7"/>
</g>
<g>
	<circle fill="#0A0A0A" cx="66.8" cy="124.5" r="30.6"/>
	<circle fill="#ADADAD" cx="66.8" cy="124.5" r="15.7"/>
</g>
</svg>
